Coordinates
version=1
nRows=8
nColumns=40
inDegrees=yes

Units are S.I. units (second, meters, Newtons, ...)
Angles are in degrees.

endheader
time	pelvis_tilt	pelvis_list	pelvis_rotation	pelvis_tx	pelvis_ty	pelvis_tz	hip_flexion_r	hip_adduction_r	hip_rotation_r	knee_angle_r	knee_angle_r_beta	ankle_angle_r	subtalar_angle_r	mtp_angle_r	hip_flexion_l	hip_adduction_l	hip_rotation_l	knee_angle_l	knee_angle_l_beta	ankle_angle_l	subtalar_angle_l	mtp_angle_l	lumbar_extension	lumbar_bending	lumbar_rotation	arm_flex_r	arm_add_r	arm_rot_r	elbow_flex_r	pro_sup_r	wrist_flex_r	wrist_dev_r	arm_flex_l	arm_add_l	arm_rot_l	elbow_flex_l	pro_sup_l	wrist_flex_l	wrist_dev_l
     19.00864286	     -3.51308100	     -5.32407300	      6.69166776	      0.78589314	      0.91878527	      0.49778298	     -2.66336211	      5.66754214	    -19.32483887	     10.01215953	     10.01215953	     17.07292605	      3.71585124	     -4.95579185	     29.98615399	     -6.68701592	     -0.46393316	     19.68325419	     19.68325419	      2.17005633	     -6.69302445	      5.91337232	     -7.83711821	      7.54986708	      4.68121093	     46.58208973	    -16.04538907	     -1.18172435	     88.08626923	     44.48129331	      0.00000000	      0.00000000	    -16.28069527	     -7.67632220	     -2.87991820	     27.98389846	     45.58395970	      0.00000000	      0.00000000
     19.02228571	     -3.64294113	     -5.25995795	      6.49491252	      0.78743436	      0.91797055	      0.49603848	     -2.88917737	      5.33347542	    -19.44527425	     10.56384974	     10.56384974	     17.70897362	      4.32326692	     -4.29345996	     29.65710604	     -6.40915828	      0.13661900	     20.11819520	     20.11819520	      1.42355424	     -7.91738325	      5.41416549	     -7.57876974	      7.43426242	      4.79473699	     46.24953639	    -15.96939138	     -1.29883941	     88.70675400	     44.50031899	      0.00000000	      0.00000000	    -16.25463308	     -7.63879348	     -2.68917880	     28.46673848	     45.56055451	      0.00000000	      0.00000000
     19.03592857	     -3.72663404	     -5.16123732	      6.29360181	      0.78897140	      0.91751990	      0.49423605	     -3.32009556	      5.05729068	    -19.19308694	     10.73743445	     10.73743445	     17.85336912	      4.41108751	     -4.31958608	     29.40419333	     -6.23249163	      0.25692878	     20.74852753	     20.74852753	      1.37208526	     -8.20060832	      5.30727756	     -7.39377985	      7.30058203	      4.77820391	     45.93532423	    -15.81719678	     -1.22569251	     88.65457296	     44.50044199	      0.00000000	      0.00000000	    -15.97220501	     -7.51368452	     -2.65102889	     28.58518253	     45.55947173	      0.00000000	      0.00000000
     19.04957143	     -3.79543387	     -5.07571482	      6.10878846	      0.79026365	      0.91720128	      0.49215541	     -3.62099603	      4.72307875	    -19.03513096	     11.16820456	     11.16820456	     17.98866708	      4.49204054	     -4.34351999	     29.35230780	     -6.00250837	      0.62078419	     21.68965175	     21.68965175	      1.45640990	     -9.01499312	      5.13134097	     -7.30082759	      7.20193122	      4.78050369	     45.53565596	    -15.79530599	     -1.25860473	     88.51964119	     44.50904014	      0.00000000	      0.00000000	    -15.65812028	     -7.47954606	     -2.61102314	     28.73792276	     45.55894269	      0.00000000	      0.00000000
     19.06321429	     -4.00865987	     -4.95281398	      5.94853284	      0.79124334	      0.91691072	      0.48971680	     -3.63801586	      4.25006718	    -18.99874646	     11.82794094	     11.82794094	     18.18200708	      4.64204857	     -4.37357003	     29.43757154	     -5.60738713	      1.29289869	     22.51272356	     22.51272356	      1.56547853	    -10.34858108	      5.15404075	     -7.11015633	      7.10845941	      4.88200829	     45.02996285	    -15.98315820	     -1.50595101	     88.18904435	     44.53594173	      0.00000000	      0.00000000	    -15.13143738	     -7.38657662	     -2.52215796	     29.04580531	     45.55455188	      0.00000000	      0.00000000
     19.07685714	     -4.08310925	     -4.73887773	      5.78001468	      0.79229021	      0.91712319	      0.48707688	     -3.93809214	      3.73040258	    -18.85589494	     12.22468573	     12.22468573	     18.23564700	      4.79793354	     -4.38480650	     29.32286767	     -5.19986552	      1.64272771	     23.27904409	     23.27904409	      1.91403784	    -11.25252841	      5.13101594	     -7.13321654	      6.96911573	      4.87567527	     44.36108145	    -16.07391709	     -1.63978119	     87.77454717	     44.55701090	      0.00000000	      0.00000000	    -14.59349624	     -7.33123561	     -2.46176035	     29.33002292	     45.55417254	      0.00000000	      0.00000000
     19.09050000	     -4.15415381	     -4.55245225	      5.59368368	      0.79331919	      0.91745103	      0.48435813	     -4.23054005	      3.22952798	    -18.76537684	     12.61905655	     12.61905655	     18.19003446	      4.92384237	     -4.40092099	     29.21375954	     -4.83397811	      1.92601544	     24.05724358	     24.05724358	      2.43205398	    -12.15820508	      5.09598200	     -7.17501750	      6.79254820	      4.84822832	     43.59482091	    -16.20990850	     -1.77196494	     87.21770424	     44.58040734	      0.00000000	      0.00000000	    -13.93290936	     -7.22651660	     -2.41331247	     29.69677495	     45.55713359	      0.00000000	      0.00000000
     19.10414286	     -4.37956399	     -4.35394834	      5.40789866	      0.79405981	      0.91764012	      0.48126326	     -4.18028345	      2.58192212	    -18.86583406	     13.34600751	     13.34600751	     18.22795924	      5.28638333	     -4.55223118	     29.25024181	     -4.31379907	      2.51715328	     24.78067101	     24.78067101	      3.01554848	    -13.56300256	      5.76806107	     -7.05620433	      6.67395378	      5.21997362	     42.77704086	    -16.83160134	     -2.42323748	     85.93719219	     44.65036444	      0.00000000	      0.00000000	    -13.12782422	     -7.17314149	     -2.34813941	     30.44542861	     45.55923059	      0.00000000	      0.00000000
